<svg version="1.2" xmlns="http://www.w3.org/2000/svg" viewBox="0 0 100 105" width="100" height="105">
	<title>apple-svg</title>
	<style>
		.s0 { fill: #d10008 } 
		.s1 { fill: #8d4706 } 
		.s2 { fill: #50a822 } 
		.s3 { fill: #578d38 } 
		.s4 { fill: #ed1c24 } 
		.s5 { fill: #ff787f } 
	</style>
	<g id="g8">
		<g id="g10">
			<path id="path12" class="s0" d="m83 58.8c0 29.5-18.3 49-32.3 39.2-12.5 9.6-32.4-8.5-32.4-39.2 0-17.8 15.4-25.5 31.2-21 18.2-4.5 33.5 3.2 33.5 21z"/>
			<path id="path14" class="s1" d="m48.2 37.8c0-0.1-0.5-9-4.5-13.8-4.6-5.5-12.4-4.9-12.5-4.9-1.5 0.2-3-0.9-3.2-2.4-0.2-1.6 0.9-3 2.4-3.2 0.4-0.1 9.6-1.3 16.2 6.6 5.5 6.7 4.7 17.5 4.6 18-0.1 1.4-3.1 1.3-3-0.3z"/>
			<path id="path16" class="s2" d="m71.8 24.4c-7.2 8.1-20.5 8-20.5 8 0 0-1.8-13.3 5.3-21.4 7.2-8.1 20.6-8 20.6-8 0 0 1.8 13.3-5.4 21.4z"/>
			<path id="path18" class="s3" d="m77.2 3l-25.9 29.4c0 0 13.3 0.1 20.5-8 7.2-8.1 5.4-21.4 5.4-21.4z"/>
			<path id="path20" class="s4" d="m72.6 62.2c0-11.1-6.3-20.8-15.4-25.6q-3.7 0.2-7.7 1.2c-15.8-4.5-31.2 3.2-31.2 21 0 8.1 1.4 15.2 3.7 21 5.2 6.8 13.2 11.2 22.3 11.2 15.7 0 28.3-12.9 28.3-28.8z"/>
			<path id="path22" class="s5" d="m44.9 60.8c-2.1 6.3-7.9 10.1-12.8 8.5-5-1.7-7.4-8.2-5.3-14.5 2.1-6.3 7.9-10.1 12.8-8.5 5 1.7 7.4 8.1 5.3 14.5z"/>
		</g>
	</g>
</svg>